<svg t="1677817738097" class="icon" viewBox="0 0 1024 1024" version="1.1" xmlns="http://www.w3.org/2000/svg" p-id="15904" width="200" height="200"><path d="M480 626.752V352a32 32 0 0 1 64 0v274.752l116.053333-116.053333a32 32 0 0 1 45.226667 45.269333l-134.442667 134.464a83.2 83.2 0 0 1-117.674666 0L318.72 555.946667a32 32 0 0 1 45.269333-45.269334l116.032 116.053334zM512 960C264.576 960 64 759.424 64 512S264.576 64 512 64s448 200.576 448 448-200.576 448-448 448z m0-64c212.074667 0 384-171.925333 384-384S724.074667 128 512 128 128 299.925333 128 512s171.925333 384 384 384z" fill="#cdcdcd" p-id="15905"></path></svg>