<svg t="1677816175190" class="icon" viewBox="0 0 1024 1024" version="1.1" xmlns="http://www.w3.org/2000/svg" p-id="2282" width="200" height="200"><path d="M512 537.002667l181.034667 180.992-60.373334 60.373333L554.666667 700.373333V938.666667h-85.333334v-238.378667l-77.994666 78.08-60.373334-60.373333L512 537.002667zM512 85.333333a298.666667 298.666667 0 0 1 296.704 264.277334 234.666667 234.666667 0 0 1-40.661333 460.117333v-85.930667a149.290667 149.290667 0 1 0-47.445334-294.826666 213.333333 213.333333 0 1 0-417.152 0 149.333333 149.333333 0 0 0-55.125333 293.546666l7.68 1.28v85.930667a234.666667 234.666667 0 0 1-40.704-460.117333A298.666667 298.666667 0 0 1 512 85.333333z" p-id="2283" fill="#cdcdcd"></path></svg>