<?xml version="1.0" standalone="no"?><!DOCTYPE svg PUBLIC "-//W3C//DTD SVG 1.1//EN" "http://www.w3.org/Graphics/SVG/1.1/DTD/svg11.dtd"><svg t="1677852393185" class="icon" viewBox="0 0 1024 1024" version="1.1" xmlns="http://www.w3.org/2000/svg" p-id="4671" xmlns:xlink="http://www.w3.org/1999/xlink" width="200" height="200"><path d="M862 902c0 16.569-13.431 30-30 30H192c-16.569 0-30-13.431-30-30V122c0-16.569 13.431-30 30-30h476l194 194v616z" fill="#C076E5" p-id="4672"></path><path d="M862 286H698c-16.569 0-30-13.431-30-30V92" fill="#FFFFFF" fill-opacity=".296" p-id="4673"></path><path d="M544 335c101.62 0 184 82.38 184 184H544z" fill="#FFFFFF" p-id="4674"></path><path d="M703 564c0 112.114-90.886 203-203 203s-203-90.886-203-203 90.886-203 203-203v203z" fill="#FFFFFF" p-id="4675"></path></svg>