<?xml version="1.0" standalone="no"?><!DOCTYPE svg PUBLIC "-//W3C//DTD SVG 1.1//EN" "http://www.w3.org/Graphics/SVG/1.1/DTD/svg11.dtd"><svg t="1677852413489" class="icon" viewBox="0 0 1024 1024" version="1.1" xmlns="http://www.w3.org/2000/svg" p-id="5758" xmlns:xlink="http://www.w3.org/1999/xlink" width="200" height="200"><path d="M862 902c0 16.569-13.431 30-30 30H192c-16.569 0-30-13.431-30-30V122c0-16.569 13.431-30 30-30h476l194 194v616z" fill="#7DB4FF" p-id="5759"></path><path d="M862 286H698c-16.569 0-30-13.431-30-30V92" fill="#FFFFFF" fill-opacity=".296" p-id="5760"></path><path d="M526.799 272.654l123.138 143.312c7.199 8.378 6.243 21.005-2.135 28.203A20 20 0 0 1 634.768 449H388.491c-11.046 0-20-8.954-20-20a20 20 0 0 1 4.83-13.034L496.46 272.654c7.199-8.377 19.826-9.333 28.204-2.135a20 20 0 0 1 2.135 2.135z" fill="#FFFFFF" p-id="5761"></path><path d="M548.465 325.535m0 37l0 224.931q0 37-37 37l0 0q-37 0-37-37l0-224.931q0-37 37-37l0 0q37 0 37 37Z" fill="#FFFFFF" p-id="5762"></path><path d="M714 768m-37 0l-329 0q-37 0-37-37l0 0q0-37 37-37l329 0q37 0 37 37l0 0q0 37-37 37Z" fill="#FFFFFF" p-id="5763"></path></svg>